<svg width="1512" height="822" viewBox="0 0 1512 822" fill="none" xmlns="http://www.w3.org/2000/svg">
<g id="Group 1038">
<path id="Ellipse 3" d="M1616 411C1616 357.027 1593.96 303.582 1551.15 253.717C1508.33 203.852 1445.57 158.544 1366.45 120.379C1287.34 82.2142 1193.42 51.9402 1090.05 31.2855C986.677 10.6308 875.886 -2.35925e-06 764 0C652.114 2.35925e-06 541.323 10.6308 437.954 31.2855C334.584 51.9402 240.66 82.2142 161.545 120.379C82.4295 158.544 19.6716 203.852 -23.1454 253.717C-65.9624 303.582 -88 357.027 -88 411L764 411H1616Z" fill="#FFFBFD"/>
<g id="car" clip-path="url(#clip0_58_87)">
<path id="Vector" d="M131.052 126.228C131.906 131.67 130.46 136.326 126.061 139.818C121.807 143.193 117.064 143.692 112.092 141.669C111.226 141.317 110.645 141.36 109.865 141.84C91.757 153.031 73.6379 164.198 55.5014 175.343C54.7352 175.815 54.3958 176.295 54.3256 177.242C53.9615 182.364 51.5377 186.309 46.9365 188.657C42.022 191.167 37.1687 190.772 32.6456 187.636C31.827 187.066 31.169 187.03 30.2857 187.29C27.34 188.157 24.3876 189.006 21.4153 189.786C17.252 190.893 13.3728 189.347 11.1142 185.719C8.76082 181.937 6.42188 178.142 4.1014 174.34C2.17283 171.181 2.75207 167.718 5.58092 165.307C8.72736 162.623 12.1543 160.276 15.0999 157.355C18.6898 153.793 20.9981 149.336 23.6441 145.119C26.1181 141.175 28.525 137.195 32.0573 134.047C33.3548 132.891 34.6676 131.752 36.1335 130.84C42.7526 126.716 49.3589 122.563 56.0668 118.583C61.1866 115.545 66.8247 114.305 72.762 114.397C79.0493 114.491 85.3362 114.539 91.6197 114.649C92.6189 114.665 93.4741 114.44 94.344 113.945C102.428 109.319 110.797 105.354 119.866 103.047C121.537 102.622 123.237 102.274 124.939 102.024C129.022 101.427 132.53 102.547 135.328 105.644C135.408 105.73 135.565 105.75 135.686 105.798L141.569 115.345C141.708 116.27 141.927 117.192 141.97 118.123C142.068 120.256 141.281 122.041 139.608 123.42C138.182 124.596 137.229 124.566 135.865 123.266C134.802 122.454 135.187 121.341 135.821 120.757C138.073 118.691 137.09 116.846 135.733 114.938C134.91 113.698 134.168 112.412 133.371 111.156C132.51 109.804 132.344 109.762 130.985 110.554C130.237 110.989 129.529 111.497 128.706 111.797C127.043 112.397 125.744 112.019 125.078 110.746C124.428 109.508 124.805 108.463 126.307 107.352C126.498 107.212 126.726 107.112 126.88 106.75C125.934 106.643 125.047 106.801 124.169 106.959C118.39 107.992 112.95 110.063 107.628 112.471C101.307 115.333 95.2546 118.706 89.3527 122.352C77.3075 129.798 65.2408 137.217 53.1855 144.646C52.6923 144.95 52.2103 145.265 51.701 145.543C50.2168 146.345 49.3659 146.201 48.1148 144.958C47.5296 143.206 47.8151 142.146 49.2482 141.055C50.3187 140.237 51.5127 139.605 52.6543 138.888C54.3595 137.819 54.3671 137.787 53.364 136.13C52.5956 134.861 51.7864 133.622 51.0443 132.336C50.4401 131.422 49.8831 130.474 49.3052 129.544C48.8656 128.831 48.3339 128.711 47.6276 129.156C43.405 131.794 39.0306 134.201 35.2471 137.508C33.874 138.711 33.3358 139.914 34.1753 141.622C34.5519 142.388 34.7823 143.225 35.0389 144.047C35.4353 145.22 35.8296 146.39 36.2379 147.56C36.5324 148.399 36.9977 148.55 37.7588 148.099C38.8244 147.465 39.8274 146.707 40.9994 146.26C42.6374 145.634 43.4689 145.894 44.5665 147.344C45.0221 148.959 44.8198 149.662 43.4932 150.542C41.8076 151.658 40.1203 152.793 38.3203 153.708C35.6579 155.064 32.8052 155.346 29.8872 154.756C28.3321 154.441 26.8006 154.04 25.2524 153.685C24.464 153.503 23.833 153.657 23.3941 154.388C20.3252 159.48 15.867 163.216 11.2191 166.762C10.2349 167.535 9.2279 168.287 8.40737 169.231C7.45924 170.32 7.93972 172.602 9.18725 173.264C9.59224 173.48 9.93392 173.305 10.2743 173.136C10.9268 172.811 11.5992 172.554 12.3291 172.502C13.4734 172.415 14.2954 172.924 14.7347 173.954C15.1496 174.921 14.9705 175.831 14.2238 176.607C14.1569 176.675 14.0808 176.736 14.0066 176.799C12.7793 177.866 12.5918 179.09 13.444 180.473C13.9965 181.37 14.5509 182.27 15.1067 183.164C16.2309 184.959 17.889 185.661 19.9188 185.259C22.2775 184.794 24.565 184.007 26.8836 183.359C28.0336 183.039 27.6834 182.257 27.4129 181.516C26.1573 178.029 26.1514 174.529 27.6627 171.128C29.9233 166.042 33.9393 163.039 39.4366 162.572C45.0198 162.097 49.5829 164.238 52.6191 169.12C53.3896 170.361 54.4147 170.588 55.6941 169.803C72.0539 159.72 88.4137 149.638 104.77 139.558C105.056 139.382 105.336 139.187 105.632 139.027C106.57 138.517 106.445 137.858 105.941 137.121C104.675 135.274 103.756 133.267 103.578 131.02C103.123 125.378 105.021 120.859 109.812 117.495C115.274 113.664 123.762 114.221 128.71 120.403C130.06 122.085 131.232 123.905 131.039 126.236L131.052 126.228Z" fill="#383838"/>
<path id="Vector_2" d="M136.179 114.947C136.733 115.721 137.263 116.5 137.525 117.44C137.837 118.566 137.655 119.536 136.691 120.247C135.597 121.057 135.372 122.053 135.872 123.262C134.267 124.251 132.659 125.242 131.052 126.228C129.043 117.895 121.277 114.393 114.851 115.731C105.231 117.732 100.773 128.699 106.354 136.93C107.218 138.207 106.99 138.61 105.791 139.344C88.8809 149.712 72.0062 160.129 55.1203 170.535C54.0877 171.172 53.272 170.967 52.6731 169.922C49.1563 163.774 41.7374 161.181 35.4395 163.898C28.7746 166.777 25.4706 173.91 27.5733 180.79C27.835 181.649 28.8324 182.583 28.2394 183.314C27.7732 183.89 26.5676 183.87 25.6901 184.118C23.9371 184.616 22.1883 185.143 20.4237 185.607C18.0189 186.24 16.0789 185.463 14.744 183.356C13.8222 181.897 12.9662 180.398 12.0103 178.964C11.5485 178.274 11.6401 177.892 12.3669 177.526C12.8798 177.268 13.3696 176.944 13.8127 176.58C14.7244 175.829 14.8619 174.859 14.2987 173.879C13.7624 172.95 12.8921 172.642 11.8436 172.995C11.527 173.1 11.2308 173.319 10.9136 173.356C10.2018 173.438 9.74242 174.99 8.82006 173.743C7.00079 171.285 6.80195 170.012 8.10324 168.84C9.053 167.988 10.0817 167.228 11.0776 166.429C11.2431 167.537 11.7736 168.479 12.3641 169.415C14.3732 172.623 16.3277 175.861 18.3368 179.07C19.1431 180.356 19.996 180.643 20.9189 180.02C21.6945 179.497 21.8285 178.706 21.7965 177.858C21.7202 175.784 21.9666 173.754 22.4697 171.728C24.6389 162.997 33.5172 156.803 42.4909 157.751C46.8599 158.214 50.6262 159.915 53.7715 162.943C54.4654 163.612 55.1385 163.983 56.0629 163.458C57.1024 163.061 58.0726 162.545 59.0164 161.963C71.4491 154.292 83.8826 146.63 96.3234 138.972C97.3526 138.337 98.3405 137.665 99.0621 136.679C99.8501 136.139 99.743 135.465 99.5129 134.65C97.6959 128.307 98.7332 122.4 102.969 117.324C107.711 111.648 113.849 109.319 121.243 110.694C124.84 111.362 127.944 112.93 130.594 115.441C131.828 116.612 132.589 116.631 134.088 115.788C134.742 115.421 135.307 114.807 136.173 114.937L136.179 114.947Z" fill="#FEA3A5"/>
<path id="Vector_3" d="M55.7131 163.877C54.9708 164.565 54.3552 164.059 53.8822 163.579C50.7019 160.347 46.8501 158.5 42.3339 158.137C37.3523 157.74 32.9126 159.135 28.9898 162.334C24.7906 165.761 22.6805 170.185 22.2161 175.469C22.1339 176.418 22.1862 177.379 22.2205 178.333C22.2635 179.566 21.6499 180.359 20.54 180.723C19.4452 181.082 18.7343 180.495 18.1791 179.587C15.8311 175.747 13.4831 171.908 11.0826 168.101C10.6868 167.474 10.6987 166.992 11.085 166.434C15.1551 163.135 19.294 159.912 22.2441 155.467C23.8783 153.001 23.9403 152.977 26.8161 153.719C30.31 154.617 33.7868 155.179 37.2816 153.774C39.5731 152.854 41.6167 151.473 43.6471 150.1C44.5634 149.481 44.7172 148.56 44.3502 147.545C45.0362 145.691 46.6387 145.155 48.3459 144.766C49.709 145.962 50.3652 146.018 52.041 144.99C57.0487 141.918 62.0355 138.804 67.0553 135.751C77.6725 129.293 88.0489 122.438 98.8933 116.364C107.057 111.794 115.581 108.021 124.894 106.39C126.716 106.071 126.921 106.102 128.302 106.488C127.585 106.93 126.975 107.279 126.394 107.669C125.147 108.51 124.819 109.655 125.489 110.736C126.151 111.809 127.336 112.054 128.646 111.323C129.655 110.76 130.642 110.152 131.599 109.504C132.227 109.08 132.632 109.007 133.066 109.778C134.058 111.528 135.134 113.23 136.175 114.949C132.392 117.254 132.744 117.605 128.93 114.611C123.366 110.244 117.084 109.415 110.417 112.224C104.479 114.723 100.949 119.237 99.4716 125.357C98.7102 128.517 98.9395 131.717 99.9407 134.828C100.316 135.997 100.304 135.999 99.6009 136.5C99.2909 136.321 99.1891 135.987 99.0124 135.707C98.2928 134.562 97.5797 134.369 96.3478 134.984C95.8731 135.222 95.4327 135.516 94.9821 135.794C82.2429 143.645 69.5036 151.496 56.7643 159.347C56.4782 159.523 56.1901 159.696 55.9027 159.878C54.0743 161.063 53.9937 161.691 55.4442 163.375C55.5714 163.522 55.6669 163.684 55.7045 163.878L55.7131 163.877Z" fill="#FEC2C3"/>
<path id="Vector_4" d="M48.6589 171.669C51.359 176.072 49.9209 181.992 45.5123 184.623C41.1628 187.218 35.2641 185.774 32.6179 181.473C29.8883 177.029 31.319 171.362 35.8764 168.59C40.3529 165.863 45.9225 167.207 48.6589 171.669Z" fill="#5D5360"/>
<path id="Vector_5" d="M109.606 134.041C106.873 129.599 108.214 124.023 112.68 121.257C117.209 118.453 122.903 119.756 125.634 124.217C128.263 128.511 126.846 134.481 122.573 137.133C118.184 139.855 112.322 138.457 109.604 134.038L109.606 134.041Z" fill="#5D5360"/>
<path id="Vector_6" d="M48.3491 144.764C47.0398 145.725 45.3957 146.201 44.3534 147.543C43.2704 146.102 42.458 145.903 40.9348 146.774C39.7683 147.443 38.6239 148.148 37.4957 148.88C36.7725 149.348 36.3239 149.349 36.0614 148.4C35.6823 147.027 35.2207 145.682 34.7928 144.325C34.906 143.573 35.363 143.012 35.8574 142.481C37.5631 140.64 39.3793 138.934 41.5465 137.621C44.1828 136.023 46.7915 134.389 49.4197 132.778C50.0281 132.403 50.6211 131.952 51.4109 132.07C52.4884 133.767 53.5443 135.473 54.6481 137.153C55.057 137.773 54.9917 138.138 54.3305 138.523C52.7924 139.421 51.2885 140.375 49.7766 141.316C48.1286 142.345 47.9251 142.854 48.3491 144.764Z" fill="#D57375"/>
<path id="Vector_7" d="M52.8973 125.728C57.2226 122.416 61.9414 119.987 67.3729 119.082C70.0487 118.638 72.7316 118.714 75.4193 118.746C78.813 118.79 82.2014 118.832 85.9974 118.881L78.1513 123.716C77.0604 123.861 75.9748 124.006 74.8658 123.922C68.8621 123.464 63.3492 124.848 58.3149 128.253C55.4825 130.166 55.4089 130.076 53.6792 127.232C53.3828 126.751 52.9567 126.332 52.8952 125.724L52.8973 125.728Z" fill="#E98A8C"/>
<path id="Vector_8" d="M52.8972 125.728C53.3849 126.497 53.8772 127.259 54.3551 128.034C55.0181 129.101 55.8699 129.314 56.9104 128.676C59.1999 127.274 61.416 125.746 63.9816 124.851C67.5778 123.596 71.276 123.236 75.0392 123.526C76.0767 123.604 77.1396 123.297 78.1532 123.72C73.947 126.348 69.7462 128.978 65.536 131.599C63.615 132.797 61.6819 133.974 59.7549 135.162C59.288 135.45 58.8622 135.753 58.4421 135.064C56.5941 132.036 54.7285 129.023 52.874 125.999C52.8357 125.937 52.8875 125.815 52.8952 125.724L52.8972 125.728Z" fill="#D57375"/>
<path id="Vector_9" d="M51.411 132.07C47.9055 134.23 44.3665 136.343 40.9027 138.564C38.5185 140.092 36.6501 142.214 34.7962 144.323C34.256 142.85 33.7171 141.372 33.1737 139.901C32.9794 139.379 33.1753 139.042 33.5459 138.642C35.2883 136.765 37.2804 135.189 39.4199 133.817C42.2453 132.003 45.1425 130.299 47.9812 128.5C48.7151 128.034 49.1335 128.065 49.552 128.855C50.1269 129.949 50.7913 130.998 51.4175 132.066L51.411 132.07Z" fill="#E98A8C"/>
<path id="Vector_10" d="M26.3429 148.968C27.4551 147.194 28.54 145.465 29.8014 143.455C30.5733 145.702 31.2858 147.682 31.9244 149.69C32.1741 150.471 31.4797 150.294 31.1382 150.211C29.5659 149.839 28.009 149.404 26.3482 148.969L26.3429 148.968Z" fill="#E7898B"/>
<path id="Vector_11" d="M55.713 163.877C54.748 163.555 53.9788 163.036 53.8616 161.926C53.7364 160.743 54.4645 160.092 55.3754 159.53C68.8566 151.227 82.335 142.911 95.8223 134.617C97.8907 133.343 99.3056 134.078 99.6075 136.496C99.3155 137.363 98.6962 137.911 97.9333 138.381C84.5237 146.632 71.1202 154.892 57.726 163.16C57.1012 163.545 56.4548 163.822 55.7183 163.878L55.713 163.877Z" fill="#383838"/>
<path id="Vector_12" d="M43.0374 173.12C43.7501 174.365 42.372 179.859 41.2542 180.571C40.5993 180.988 39.9102 181.092 39.2139 180.713C38.4484 180.295 37.8655 179.607 38.022 178.757C38.357 176.93 38.8212 175.113 39.3504 173.329C39.5849 172.539 40.335 172.18 41.1758 172.168C42.008 172.156 42.6401 172.534 43.0387 173.115L43.0374 173.12Z" fill="#383838"/>
<path id="Vector_13" d="M114.406 126.672C114.609 126.633 115.007 126.446 115.349 126.515C117.175 126.894 119.022 127.227 120.783 127.808C121.756 128.129 122.164 129.15 121.904 130.186C121.626 131.297 120.756 131.946 119.651 131.773C117.907 131.498 116.183 131.057 114.484 130.574C113.637 130.334 113.201 129.604 113.195 128.696C113.189 127.869 113.545 127.225 114.406 126.672Z" fill="#383838"/>
</g>
</g>
<defs>
<clipPath id="clip0_58_87">
<rect width="148" height="55" fill="white" transform="translate(-6.55188 157.083) rotate(-31.6445)"/>
</clipPath>
</defs>
</svg>
