<?xml version="1.0" encoding="UTF-8"?>
<svg id="Layer_1" data-name="Layer 1" xmlns="http://www.w3.org/2000/svg" viewBox="0 0 918 525">
  <defs>
    <style>
      .cls-1 {
        fill: none;
        stroke: #000;
        stroke-miterlimit: 10;
        stroke-width: 13px;
      }

      .cls-2, .cls-3 {
        stroke-width: 0px;
      }

      .cls-3 {
        fill: #ed1f82;
      }
    </style>
  </defs>
  <g>
    <g>
      <path class="cls-3" d="m205.65,16.7C93.1,16.7,1.85,107.95,1.85,220.5s91.25,203.81,203.8,203.81,203.8-91.25,203.8-203.81S318.21,16.7,205.65,16.7Zm71.23,338.39c-72.7,40.42-164.41,14.26-204.83-58.44-40.43-72.7-14.26-164.41,58.44-204.83,72.7-40.43,164.41-14.26,204.83,58.44,40.42,72.7,14.26,164.41-58.44,204.83Z"/>
      <path class="cls-3" d="m491.96,199.75c-11.61-10.06-43.79-31.49-80.32,0h-37.37v55.93h18.43c5.54-27.44,29.3-48.08,57.77-48.08s52.23,20.63,57.77,48.08h18.43v-55.93h-34.72Z"/>
    </g>
    <g>
      <path class="cls-1" d="m619.55,148.48c4.83-5.07,32.09-32.7,76.2-33.34,44.7-.65,72.97,26.89,77.79,31.75"/>
      <path class="cls-2" d="m618.76,155.98c8.36,0,8.38-13,0-13s-8.38,13,0,13h0Z"/>
      <path class="cls-2" d="m775,154.74c8.36,0,8.38-13,0-13s-8.38,13,0,13h0Z"/>
    </g>
    <g>
      <path class="cls-1" d="m119.47,150.07c4.83-5.07,32.09-32.7,76.2-33.34,44.7-.65,72.97,26.89,77.79,31.75"/>
      <path class="cls-2" d="m118.68,157.57c8.36,0,8.38-13,0-13s-8.38,13,0,13h0Z"/>
      <path class="cls-2" d="m274.92,156.33c8.36,0,8.38-13,0-13s-8.38,13,0,13h0Z"/>
    </g>
  </g>
  <path class="cls-3" d="m912.56,437.86l.16-.11-13.38-20.94-6.29-9.89c-.09-.14-.19-.26-.28-.39l-38.22-59.81c53.81-66.34,61.92-162.23,13.4-238.15-60.61-94.84-186.64-122.59-281.48-61.98-94.84,60.61-122.59,186.64-61.98,281.48,52.73,82.51,154.96,114.23,243.1,81.18l34.43,53.88c.21.43.43.86.69,1.27l17.63,27.72c15.69,24.66,48.71,32,73.38,16.31l.65-.41c23.61-15.02,31.33-45.91,18.18-70.16Zm-343.72-134.88c-44.8-70.09-24.29-163.23,45.8-208.02,70.09-44.8,163.23-24.29,208.02,45.8,44.79,70.09,24.29,163.23-45.81,208.02-70.09,44.79-163.23,24.29-208.02-45.8Z"/>
</svg>